<svg width="128" height="384" viewBox="0 0 128 384" fill="none" xmlns="http://www.w3.org/2000/svg">
<rect y="64" width="64" height="2" fill="#909090"/>
<rect y="126" width="64" height="2" fill="#909090"/>
<rect y="94" width="64" height="4" fill="#909090"/>
<rect y="64" width="2" height="30" fill="#909090"/>
<rect x="62" y="64" width="2" height="30" fill="#909090"/>
<rect x="30" y="98" width="4" height="28" fill="#909090"/>
<rect x="2" y="66" width="4" height="28" fill="#893D07"/>
<rect x="34" y="98" width="4" height="28" fill="#893D07"/>
<rect x="6" y="66" width="56" height="4" fill="#893D07"/>
<rect y="102" width="30" height="24" fill="#FF9A51"/>
<rect x="6" y="70" width="56" height="24" fill="#FF9A51"/>
<rect x="38" y="102" width="26" height="24" fill="#FF9A51"/>
<rect y="98" width="30" height="4" fill="#893D07"/>
<rect x="38" y="98" width="26" height="4" fill="#893D07"/>
<rect x="56" y="128" width="8" height="64" fill="#909090"/>
<rect x="48" y="136" width="8" height="48" fill="#909090"/>
<rect y="128" width="8" height="56" fill="#D7D7D7"/>
<rect x="8" y="136" width="8" height="40" fill="#D7D7D7"/>
<rect y="184" width="56" height="8" fill="#909090"/>
<rect x="8" y="176" width="40" height="8" fill="#909090"/>
<rect x="8" y="128" width="48" height="8" fill="#D7D7D7"/>
<rect x="16" y="136" width="32" height="8" fill="#D7D7D7"/>
<rect x="16" y="144" width="32" height="32" fill="white"/>
<circle cx="16" cy="208" r="16" fill="#41DB3E"/>
<circle cx="16" cy="208" r="16" fill="url(#paint0_linear)"/>
<circle cx="28" cy="220" r="10" fill="#6AD267"/>
<circle cx="28" cy="220" r="10" fill="url(#paint1_linear)"/>
<circle cx="54" cy="223" r="10" fill="#6AD267"/>
<circle cx="54" cy="223" r="10" fill="url(#paint2_linear)"/>
<circle cx="33" cy="202" r="10" fill="#6AD267"/>
<circle cx="33" cy="202" r="10" fill="url(#paint3_linear)"/>
<circle cx="10" cy="228" r="10" fill="#6AD267"/>
<circle cx="10" cy="228" r="10" fill="url(#paint4_linear)"/>
<circle cx="48" cy="208" r="16" fill="#41DB3E"/>
<circle cx="48" cy="208" r="16" fill="url(#paint5_linear)"/>
<circle cx="16" cy="240" r="16" fill="#41DB3E"/>
<circle cx="16" cy="240" r="16" fill="url(#paint6_linear)"/>
<circle cx="48" cy="240" r="16" fill="#41DB3E"/>
<circle cx="48" cy="240" r="16" fill="url(#paint7_linear)"/>
<circle cx="32" cy="246" r="10" fill="#6AD267"/>
<circle cx="32" cy="246" r="10" fill="url(#paint8_linear)"/>
<circle cx="38" cy="228" r="10" fill="#6AD267"/>
<circle cx="38" cy="228" r="10" fill="url(#paint9_linear)"/>
<circle cx="48" cy="218" r="10" fill="#6AD267"/>
<circle cx="48" cy="218" r="10" fill="url(#paint10_linear)"/>
<circle cx="31" cy="238" r="10" fill="#6AD267"/>
<circle cx="31" cy="238" r="10" fill="url(#paint11_linear)"/>
<rect y="256" width="64" height="64" fill="#3950C7"/>
<path d="M8 266C9.11779 264.672 10.3908 263.647 12.2222 263.411C14.0816 263.172 15.3529 263.824 16.8889 264.556C18.3845 265.268 19.4601 265.4 21.2222 265.4C23.0735 265.4 23.0912 264.227 24 263" stroke="#AFBEF2" stroke-width="3" stroke-linecap="round" stroke-linejoin="round"/>
<path d="M46 310C47.1178 308.672 48.3908 307.647 50.2222 307.411C52.0816 307.172 53.3529 307.824 54.8889 308.556C56.3845 309.268 57.4601 309.4 59.2222 309.4C61.0735 309.4 61.0912 308.227 62 307" stroke="#AFBEF2" stroke-width="3" stroke-linecap="round" stroke-linejoin="round"/>
<path d="M16 312C17.1178 310.672 18.3908 309.647 20.2222 309.411C22.0816 309.172 23.3529 309.824 24.8889 310.556C26.3845 311.268 27.4601 311.4 29.2222 311.4C31.0735 311.4 31.0912 310.227 32 309" stroke="#AFBEF2" stroke-width="3" stroke-linecap="round" stroke-linejoin="round"/>
<path d="M38 296C39.1178 294.672 40.3908 293.647 42.2222 293.411C44.0816 293.172 45.3529 293.824 46.8889 294.556C48.3845 295.268 49.4601 295.4 51.2222 295.4C53.0735 295.4 53.0912 294.227 54 293" stroke="#AFBEF2" stroke-width="3" stroke-linecap="round" stroke-linejoin="round"/>
<path d="M8 296C9.11779 294.672 10.3908 293.647 12.2222 293.411C14.0816 293.172 15.3529 293.824 16.8889 294.556C18.3845 295.268 19.4601 295.4 21.2222 295.4C23.0735 295.4 23.0912 294.227 24 293" stroke="#AFBEF2" stroke-width="3" stroke-linecap="round" stroke-linejoin="round"/>
<path d="M46 280C47.1178 278.672 48.3908 277.647 50.2222 277.411C52.0816 277.172 53.3529 277.824 54.8889 278.556C56.3845 279.268 57.4601 279.4 59.2222 279.4C61.0735 279.4 61.0912 278.227 62 277" stroke="#AFBEF2" stroke-width="3" stroke-linecap="round" stroke-linejoin="round"/>
<path d="M16 280C17.1178 278.672 18.3908 277.647 20.2222 277.411C22.0816 277.172 23.3529 277.824 24.8889 278.556C26.3845 279.268 27.4601 279.4 29.2222 279.4C31.0735 279.4 31.0912 278.227 32 277" stroke="#AFBEF2" stroke-width="3" stroke-linecap="round" stroke-linejoin="round"/>
<path d="M38 266C39.1178 264.672 40.3908 263.647 42.2222 263.411C44.0816 263.172 45.3529 263.824 46.8889 264.556C48.3845 265.268 49.4601 265.4 51.2222 265.4C53.0735 265.4 53.0912 264.227 54 263" stroke="#AFBEF2" stroke-width="3" stroke-linecap="round" stroke-linejoin="round"/>
<rect y="320" width="64" height="64" fill="#C4C4C4"/>
<line x1="3.93934" y1="379.939" x2="13.9393" y2="369.939" stroke="#F4F4F4" stroke-width="3"/>
<line x1="14.9393" y1="368.939" x2="25.9393" y2="357.939" stroke="#F4F4F4" stroke-width="3"/>
<line x1="26.9393" y1="356.939" x2="37.9393" y2="345.939" stroke="#F4F4F4" stroke-width="3"/>
<line x1="38.9393" y1="344.939" x2="49.9393" y2="333.939" stroke="#F4F4F4" stroke-width="3"/>
<line x1="50.9393" y1="332.939" x2="60.9393" y2="322.939" stroke="#F4F4F4" stroke-width="3"/>
<line x1="1.93934" y1="351.939" x2="7.93934" y2="345.939" stroke="#F4F4F4" stroke-width="3"/>
<line x1="25.9393" y1="327.939" x2="31.9393" y2="321.939" stroke="#F4F4F4" stroke-width="3"/>
<line x1="17.9393" y1="335.939" x2="23.9393" y2="329.939" stroke="#F4F4F4" stroke-width="3"/>
<line x1="9.93934" y1="343.939" x2="15.9393" y2="337.939" stroke="#F4F4F4" stroke-width="3"/>
<line x1="34.9393" y1="381.939" x2="40.9393" y2="375.939" stroke="#F4F4F4" stroke-width="3"/>
<line x1="55.9393" y1="360.939" x2="61.9393" y2="354.939" stroke="#F4F4F4" stroke-width="3"/>
<line x1="48.9393" y1="367.939" x2="54.9393" y2="361.939" stroke="#F4F4F4" stroke-width="3"/>
<line x1="41.9393" y1="374.939" x2="47.9393" y2="368.939" stroke="#F4F4F4" stroke-width="3"/>
<rect x="14" y="12" width="3" height="46" fill="#909090"/>
<rect x="17" y="12" width="38" height="20" fill="white"/>
<rect x="17" y="12" width="38" height="20" fill="url(#paint12_linear)"/>
<rect x="17" y="12" width="38" height="20" fill="url(#paint13_linear)"/>
<rect x="81" y="12" width="38" height="20" fill="white"/>
<rect x="81" y="12" width="38" height="20" fill="url(#paint14_linear)"/>
<rect x="81" y="12" width="38" height="20" fill="url(#paint15_linear)"/>
<rect x="78" y="12" width="3" height="46" fill="#909090"/>
  
  
  
  <g id="base">
    <path d="M113 18L113.292 19.2942L114.414 18.5858L113.706 19.7077L115 20L113.706 20.2923L114.414 21.4142L113.292 20.7058L113 22L112.708 20.7058L111.586 21.4142L112.294 20.2923L111 20L112.294 19.7077L111.586 18.5858L112.708 19.2942L113 18Z" fill="black"/>
  </g>
  <g id="brick">
    <path d="M105 25L105.292 26.2942L106.414 25.5858L105.706 26.7077L107 27L105.706 27.2923L106.414 28.4142L105.292 27.7058L105 29L104.708 27.7058L103.586 28.4142L104.294 27.2923L103 27L104.294 26.7077L103.586 25.5858L104.708 26.2942L105 25Z" fill="black"/>
  </g>
  <g id="hardBrick">
    <path d="M103 16L103.292 17.2942L104.414 16.5858L103.706 17.7077L105 18L103.706 18.2923L104.414 19.4142L103.292 18.7058L103 20L102.708 18.7058L101.586 19.4142L102.294 18.2923L101 18L102.294 17.7077L101.586 16.5858L102.708 17.2942L103 16Z" fill="black"/>
  </g>
  <g id="grace">
    <path d="M95 24L95.2923 25.2942L96.4142 24.5858L95.7058 25.7077L97 26L95.7058 26.2923L96.4142 27.4142L95.2923 26.7058L95 28L94.7077 26.7058L93.5858 27.4142L94.2942 26.2923L93 26L94.2942 25.7077L93.5858 24.5858L94.7077 25.2942L95 24Z" fill="black"/>
  </g>
  <g id="water">
    <path d="M87 18L87.2923 19.2942L88.4142 18.5858L87.7058 19.7077L89 20L87.7058 20.2923L88.4142 21.4142L87.2923 20.7058L87 22L86.7077 20.7058L85.5858 21.4142L86.2942 20.2923L85 20L86.2942 19.7077L85.5858 18.5858L86.7077 19.2942L87 18Z" fill="black"/>
  </g>
  <g id="ice">
    <path d="M94 14L94.2923 15.2942L95.4142 14.5858L94.7058 15.7077L96 16L94.7058 16.2923L95.4142 17.4142L94.2923 16.7058L94 18L93.7077 16.7058L92.5858 17.4142L93.2942 16.2923L92 16L93.2942 15.7077L92.5858 14.5858L93.7077 15.2942L94 14Z" fill="black"/>
  </g>
  
  
  
<defs>
<linearGradient id="paint0_linear" x1="16" y1="192" x2="16" y2="224" gradientUnits="userSpaceOnUse">
<stop stop-color="#12421D"/>
<stop offset="1" stop-color="white" stop-opacity="0"/>
</linearGradient>
<linearGradient id="paint1_linear" x1="28" y1="210" x2="28" y2="230" gradientUnits="userSpaceOnUse">
<stop stop-color="#12421D"/>
<stop offset="1" stop-color="white" stop-opacity="0"/>
</linearGradient>
<linearGradient id="paint2_linear" x1="54" y1="213" x2="54" y2="233" gradientUnits="userSpaceOnUse">
<stop stop-color="#12421D"/>
<stop offset="1" stop-color="white" stop-opacity="0"/>
</linearGradient>
<linearGradient id="paint3_linear" x1="33" y1="192" x2="33" y2="212" gradientUnits="userSpaceOnUse">
<stop stop-color="#12421D"/>
<stop offset="1" stop-color="white" stop-opacity="0"/>
</linearGradient>
<linearGradient id="paint4_linear" x1="10" y1="218" x2="10" y2="238" gradientUnits="userSpaceOnUse">
<stop stop-color="#12421D"/>
<stop offset="1" stop-color="white" stop-opacity="0"/>
</linearGradient>
<linearGradient id="paint5_linear" x1="48" y1="192" x2="48" y2="224" gradientUnits="userSpaceOnUse">
<stop stop-color="#12421D"/>
<stop offset="1" stop-color="white" stop-opacity="0"/>
</linearGradient>
<linearGradient id="paint6_linear" x1="16" y1="224" x2="16" y2="256" gradientUnits="userSpaceOnUse">
<stop stop-color="#12421D"/>
<stop offset="1" stop-color="white" stop-opacity="0"/>
</linearGradient>
<linearGradient id="paint7_linear" x1="48" y1="224" x2="48" y2="256" gradientUnits="userSpaceOnUse">
<stop stop-color="#12421D"/>
<stop offset="1" stop-color="white" stop-opacity="0"/>
</linearGradient>
<linearGradient id="paint8_linear" x1="32" y1="236" x2="32" y2="256" gradientUnits="userSpaceOnUse">
<stop stop-color="#12421D"/>
<stop offset="1" stop-color="white" stop-opacity="0"/>
</linearGradient>
<linearGradient id="paint9_linear" x1="38" y1="218" x2="38" y2="238" gradientUnits="userSpaceOnUse">
<stop stop-color="#12421D"/>
<stop offset="1" stop-color="white" stop-opacity="0"/>
</linearGradient>
<linearGradient id="paint10_linear" x1="48" y1="208" x2="48" y2="228" gradientUnits="userSpaceOnUse">
<stop stop-color="#12421D"/>
<stop offset="1" stop-color="white" stop-opacity="0"/>
</linearGradient>
<linearGradient id="paint11_linear" x1="31" y1="228" x2="31" y2="248" gradientUnits="userSpaceOnUse">
<stop stop-color="#12421D"/>
<stop offset="1" stop-color="white" stop-opacity="0"/>
</linearGradient>
<linearGradient id="paint12_linear" x1="17" y1="32" x2="36" y2="32" gradientUnits="userSpaceOnUse">
<stop stop-color="#B947C2"/>
<stop offset="1" stop-color="white" stop-opacity="0"/>
</linearGradient>
<linearGradient id="paint13_linear" x1="55" y1="12" x2="36" y2="12" gradientUnits="userSpaceOnUse">
<stop stop-color="#67CBA1"/>
<stop offset="1" stop-color="white" stop-opacity="0"/>
</linearGradient>
<linearGradient id="paint14_linear" x1="81" y1="32" x2="100" y2="32" gradientUnits="userSpaceOnUse">
<stop stop-color="#392038"/>
<stop offset="1" stop-color="white" stop-opacity="0"/>
</linearGradient>
<linearGradient id="paint15_linear" x1="119" y1="12" x2="100" y2="12" gradientUnits="userSpaceOnUse">
<stop stop-color="#0F2F21"/>
<stop offset="1" stop-color="white" stop-opacity="0"/>
</linearGradient>
</defs>
</svg>
