<svg width="64" height="64" viewBox="0 0 64 64" fill="none" xmlns="http://www.w3.org/2000/svg">
<rect x="12" y="56" width="48" height="40" rx="4" transform="rotate(-90 12 56)" fill="#E9E9E9"/>
<rect x="12" y="56" width="48" height="40" rx="4" transform="rotate(-90 12 56)" fill="url(#paint0_linear)"/>
<rect x="12" y="56" width="48" height="40" rx="4" transform="rotate(-90 12 56)" fill="url(#paint1_linear)"/>
<rect x="22" y="42" width="20" height="20" rx="4" transform="rotate(-90 22 42)" fill="#BDBDBD"/>
<path d="M0 56H12H64V62V64H60V62L55 62V64H50V62H45V64H40V62H35V64H30V62H25V64H20V62H15V64H10V62H5V64H0L0 56Z" fill="#E9E9E9"/>
<path d="M0 56H12H64V62V64H60V62L55 62V64H50V62H45V64H40V62H35V64H30V62H25V64H20V62H15V64H10V62H5V64H0L0 56Z" fill="url(#paint2_linear)"/>
<path d="M0 8L15 8L64 8V0H60V2H55V0L50 0V2H45V0H40V2L35 2V0H30V2H25V0L20 0V2H15V0H10V2L5 2L5 0H0L0 8Z" fill="#E9E9E9"/>
<path d="M0 8L15 8L64 8V0H60V2H55V0L50 0V2H45V0H40V2L35 2V0H30V2H25V0L20 0V2H15V0H10V2L5 2L5 0H0L0 8Z" fill="url(#paint3_linear)"/>
<path d="M2 36C0.89543 36 0 35.1046 0 34L0 30C0 28.8954 0.895431 28 2 28H30V36H2Z" fill="#878686"/>
<path d="M2 36C0.89543 36 0 35.1046 0 34L0 30C0 28.8954 0.895431 28 2 28H30V36H2Z" fill="url(#paint4_linear)"/>
<defs>
<linearGradient id="paint0_linear" x1="36" y1="56" x2="36" y2="76" gradientUnits="userSpaceOnUse">
<stop stop-color="#878686"/>
<stop offset="1" stop-color="white" stop-opacity="0"/>
</linearGradient>
<linearGradient id="paint1_linear" x1="36" y1="96" x2="36" y2="76" gradientUnits="userSpaceOnUse">
<stop stop-color="#878686"/>
<stop offset="1" stop-color="white" stop-opacity="0"/>
</linearGradient>
<linearGradient id="paint2_linear" x1="64" y1="64" x2="64" y2="56" gradientUnits="userSpaceOnUse">
<stop stop-color="#878686"/>
<stop offset="1" stop-color="white" stop-opacity="0"/>
</linearGradient>
<linearGradient id="paint3_linear" x1="64" y1="0" x2="64" y2="8" gradientUnits="userSpaceOnUse">
<stop stop-color="#878686"/>
<stop offset="1" stop-color="white" stop-opacity="0"/>
</linearGradient>
<linearGradient id="paint4_linear" x1="30" y1="36" x2="30" y2="28" gradientUnits="userSpaceOnUse">
<stop stop-color="white"/>
<stop offset="1" stop-color="white" stop-opacity="0"/>
</linearGradient>
</defs>
</svg>
