<svg width="64" height="64" viewBox="0 0 64 64" fill="none" xmlns="http://www.w3.org/2000/svg">
<rect x="12" y="9" width="40" height="46" rx="4" fill="#E9E9E9"/>
<rect x="12" y="9" width="40" height="46" rx="4" fill="url(#paint0_linear)"/>
<rect x="12" y="9" width="40" height="46" rx="4" fill="url(#paint1_linear)"/>
<rect x="20" y="22" width="24" height="20" rx="4" fill="#BDBDBD"/>
<path d="M12 0V12V64H3H0V60H3V55H0V50H3V45H0V40H3V35H0V30H3V25H0V20H3V15H0V10H3V5H0V0H12Z" fill="#E9E9E9"/>
<path d="M12 0V12V64H3H0V60H3V55H0V50H3V45H0V40H3V35H0V30H3V25H0V20H3V15H0V10H3V5H0V0H12Z" fill="url(#paint2_linear)"/>
<path d="M52 0V15V64H64V60H61V55H64V50H61V45H64V40H61V35H64V30H61V25H64V20H61V15H64V10H61V5H64V0H52Z" fill="#E9E9E9"/>
<path d="M52 0V15V64H64V60H61V55H64V50H61V45H64V40H61V35H64V30H61V25H64V20H61V15H64V10H61V5H64V0H52Z" fill="url(#paint3_linear)"/>
<path d="M28 2C28 0.89543 28.8954 0 30 0H34C35.1046 0 36 0.895431 36 2V30H28V2Z" fill="#878686"/>
<path d="M28 2C28 0.89543 28.8954 0 30 0H34C35.1046 0 36 0.895431 36 2V30H28V2Z" fill="url(#paint4_linear)"/>
<defs>
<linearGradient id="paint0_linear" x1="32" y1="9" x2="32" y2="32" gradientUnits="userSpaceOnUse">
<stop stop-color="#878686"/>
<stop offset="1" stop-color="white" stop-opacity="0"/>
</linearGradient>
<linearGradient id="paint1_linear" x1="32" y1="55" x2="32" y2="32" gradientUnits="userSpaceOnUse">
<stop stop-color="#878686"/>
<stop offset="1" stop-color="white" stop-opacity="0"/>
</linearGradient>
<linearGradient id="paint2_linear" x1="0" y1="64" x2="12" y2="64" gradientUnits="userSpaceOnUse">
<stop stop-color="#878686"/>
<stop offset="1" stop-color="white" stop-opacity="0"/>
</linearGradient>
<linearGradient id="paint3_linear" x1="64" y1="64" x2="52" y2="64" gradientUnits="userSpaceOnUse">
<stop stop-color="#878686"/>
<stop offset="1" stop-color="white" stop-opacity="0"/>
</linearGradient>
<linearGradient id="paint4_linear" x1="28" y1="30" x2="36" y2="30" gradientUnits="userSpaceOnUse">
<stop stop-color="white"/>
<stop offset="1" stop-color="white" stop-opacity="0"/>
</linearGradient>
</defs>
</svg>
