<svg width="66" height="64" viewBox="0 0 66 64" fill="none" xmlns="http://www.w3.org/2000/svg">
<path d="M65 33V31H64V29L62 29V27H60V26H59V25H58V24H57V23H56V22H55V21H54V20H53V19H52V18L4 18L1 21L1 43L4 46L52 46V45H53V44H54V43H55V42H56V41H57V40H58V39H59V38H60V37H62V35H64V33H65Z" fill="white"/>
<path d="M65 33V31H64V29L62 29V27H60V26H59V25H58V24H57V23H56V22H55V21H54V20H53V19H52V18L4 18L1 21L1 43L4 46L52 46V45H53V44H54V43H55V42H56V41H57V40H58V39H59V38H60V37H62V35H64V33H65Z" fill="url(#paint0_linear)"/>
<path d="M65 33V31H64V29L62 29V27H60V26H59V25H58V24H57V23H56V22H55V21H54V20H53V19H52V18L4 18L1 21L1 43L4 46L52 46V45H53V44H54V43H55V42H56V41H57V40H58V39H59V38H60V37H62V35H64V33H65Z" fill="url(#paint1_linear)"/>
<path d="M65 33V31H64V29L62 29V27H60V26H59V25H58V24H57V23H56V22H55V21H54V20H53V19H52V18L4 18L1 21L1 43L4 46L52 46V45H53V44H54V43H55V42H56V41H57V40H58V39H59V38H60V37H62V35H64V33H65Z" stroke="#666666" stroke-width="0.5" stroke-linejoin="bevel"/>
<defs>
<linearGradient id="paint0_linear" x1="33" y1="18" x2="33" y2="32" gradientUnits="userSpaceOnUse">
<stop stop-color="#733131"/>
<stop offset="1" stop-color="white" stop-opacity="0"/>
</linearGradient>
<linearGradient id="paint1_linear" x1="33" y1="46" x2="33" y2="32" gradientUnits="userSpaceOnUse">
<stop stop-color="#733131"/>
<stop offset="1" stop-color="white" stop-opacity="0"/>
</linearGradient>
</defs>
</svg>
