<svg width="64" height="64" viewBox="0 0 64 64" fill="none" xmlns="http://www.w3.org/2000/svg">
<rect x="55" y="12" width="40" height="46" rx="4" transform="rotate(90 55 12)" fill="#E9E9E9"/>
<rect x="55" y="12" width="40" height="46" rx="4" transform="rotate(90 55 12)" fill="url(#paint0_linear)"/>
<rect x="55" y="12" width="40" height="46" rx="4" transform="rotate(90 55 12)" fill="url(#paint1_linear)"/>
<rect x="44" y="18" width="28" height="24" rx="4" transform="rotate(90 44 18)" fill="#BDBDBD"/>
<path d="M64 12L52 12L0 12V3V0L4 0V3L9 3V0L14 0V3L19 3V0L24 0V3L29 3V0L34 0V3L39 3V0L44 0V3L49 3V0L54 0V3L59 3V0L64 0V12Z" fill="#E9E9E9"/>
<path d="M64 12L52 12L0 12V3V0L4 0V3L9 3V0L14 0V3L19 3V0L24 0V3L29 3V0L34 0V3L39 3V0L44 0V3L49 3V0L54 0V3L59 3V0L64 0V12Z" fill="url(#paint2_linear)"/>
<path d="M64 52H49L0 52V64H4V61H9V64L14 64V61H19V64H24V61H29V64H34V61H39V64L44 64V61H49V64H54V61H59V64H64V52Z" fill="#E9E9E9"/>
<path d="M64 52H49L0 52V64H4V61H9V64L14 64V61H19V64H24V61H29V64H34V61H39V64L44 64V61H49V64H54V61H59V64H64V52Z" fill="url(#paint3_linear)"/>
<path d="M34 36V28L61 28V26H64V38H61V36L34 36Z" fill="#878686"/>
<path d="M34 36V28L61 28V26H64V38H61V36L34 36Z" fill="url(#paint4_linear)"/>
<defs>
<linearGradient id="paint0_linear" x1="75" y1="12" x2="75" y2="35" gradientUnits="userSpaceOnUse">
<stop stop-color="#878686"/>
<stop offset="1" stop-color="white" stop-opacity="0"/>
</linearGradient>
<linearGradient id="paint1_linear" x1="75" y1="58" x2="75" y2="35" gradientUnits="userSpaceOnUse">
<stop stop-color="#878686"/>
<stop offset="1" stop-color="white" stop-opacity="0"/>
</linearGradient>
<linearGradient id="paint2_linear" x1="0" y1="0" x2="0" y2="12" gradientUnits="userSpaceOnUse">
<stop stop-color="#878686"/>
<stop offset="1" stop-color="white" stop-opacity="0"/>
</linearGradient>
<linearGradient id="paint3_linear" x1="0" y1="64" x2="0" y2="52" gradientUnits="userSpaceOnUse">
<stop stop-color="#878686"/>
<stop offset="1" stop-color="white" stop-opacity="0"/>
</linearGradient>
<linearGradient id="paint4_linear" x1="64" y1="28" x2="64" y2="35.5" gradientUnits="userSpaceOnUse">
<stop stop-color="white"/>
<stop offset="1" stop-color="white" stop-opacity="0"/>
</linearGradient>
</defs>
</svg>
