<svg width="64" height="64" viewBox="0 0 64 64" fill="none" xmlns="http://www.w3.org/2000/svg">
<rect x="52" y="55" width="40" height="46" rx="4" transform="rotate(-180 52 55)" fill="#E9E9E9"/>
<rect x="52" y="55" width="40" height="46" rx="4" transform="rotate(-180 52 55)" fill="url(#paint0_linear)"/>
<rect x="52" y="55" width="40" height="46" rx="4" transform="rotate(-180 52 55)" fill="url(#paint1_linear)"/>
<rect x="46" y="44" width="28" height="24" rx="4" transform="rotate(-180 46 44)" fill="#BDBDBD"/>
<path d="M52 64V52L52 0H61H64V4H61V9H64V14H61V19H64V24H61V29H64V34H61V39H64V44H61V49H64V54H61V59H64V64H52Z" fill="#E9E9E9"/>
<path d="M52 64V52L52 0H61H64V4H61V9H64V14H61V19H64V24H61V29H64V34H61V39H64V44H61V49H64V54H61V59H64V64H52Z" fill="url(#paint2_linear)"/>
<path d="M12 64L12 49L12 0H0V4H3V9H0L0 14H3V19H0V24H3L3 29H0V34H3V39H0L0 44H3V49H0V54H3L3 59H0V64H12Z" fill="#E9E9E9"/>
<path d="M12 64L12 49L12 0H0V4H3V9H0L0 14H3V19H0V24H3L3 29H0V34H3V39H0L0 44H3V49H0V54H3L3 59H0V64H12Z" fill="url(#paint3_linear)"/>
<path d="M28 34H36L36 61H38V64H26V61H28L28 34Z" fill="#878686"/>
<path d="M28 34H36L36 61H38V64H26V61H28L28 34Z" fill="url(#paint4_linear)"/>
<defs>
<linearGradient id="paint0_linear" x1="72" y1="55" x2="72" y2="78" gradientUnits="userSpaceOnUse">
<stop stop-color="#878686"/>
<stop offset="1" stop-color="white" stop-opacity="0"/>
</linearGradient>
<linearGradient id="paint1_linear" x1="72" y1="101" x2="72" y2="78" gradientUnits="userSpaceOnUse">
<stop stop-color="#878686"/>
<stop offset="1" stop-color="white" stop-opacity="0"/>
</linearGradient>
<linearGradient id="paint2_linear" x1="64" y1="0" x2="52" y2="0" gradientUnits="userSpaceOnUse">
<stop stop-color="#878686"/>
<stop offset="1" stop-color="white" stop-opacity="0"/>
</linearGradient>
<linearGradient id="paint3_linear" x1="0" y1="0" x2="12" y2="0" gradientUnits="userSpaceOnUse">
<stop stop-color="#878686"/>
<stop offset="1" stop-color="white" stop-opacity="0"/>
</linearGradient>
<linearGradient id="paint4_linear" x1="36" y1="64" x2="28.5" y2="64" gradientUnits="userSpaceOnUse">
<stop stop-color="white"/>
<stop offset="1" stop-color="white" stop-opacity="0"/>
</linearGradient>
</defs>
</svg>
