<svg width="66" height="64" viewBox="0 0 66 64" fill="none" xmlns="http://www.w3.org/2000/svg">
<path d="M1 31V33H2V35H4V37H6V38H7V39H8V40H9V41H10V42H11V43H12V44H13V45H14V46L62 46L65 43V21L62 18L14 18V19H13V20H12V21H11V22H10V23H9V24H8V25H7V26H6V27H4V29H2V31H1Z" fill="white"/>
<path d="M1 31V33H2V35H4V37H6V38H7V39H8V40H9V41H10V42H11V43H12V44H13V45H14V46L62 46L65 43V21L62 18L14 18V19H13V20H12V21H11V22H10V23H9V24H8V25H7V26H6V27H4V29H2V31H1Z" fill="url(#paint0_linear)"/>
<path d="M1 31V33H2V35H4V37H6V38H7V39H8V40H9V41H10V42H11V43H12V44H13V45H14V46L62 46L65 43V21L62 18L14 18V19H13V20H12V21H11V22H10V23H9V24H8V25H7V26H6V27H4V29H2V31H1Z" fill="url(#paint1_linear)"/>
<path d="M1 31V33H2V35H4V37H6V38H7V39H8V40H9V41H10V42H11V43H12V44H13V45H14V46L62 46L65 43V21L62 18L14 18V19H13V20H12V21H11V22H10V23H9V24H8V25H7V26H6V27H4V29H2V31H1Z" stroke="#666666" stroke-width="0.5" stroke-linejoin="bevel"/>
<defs>
<linearGradient id="paint0_linear" x1="33" y1="46" x2="33" y2="32" gradientUnits="userSpaceOnUse">
<stop stop-color="#666666"/>
<stop offset="1" stop-color="white" stop-opacity="0"/>
</linearGradient>
<linearGradient id="paint1_linear" x1="33" y1="18" x2="33" y2="32" gradientUnits="userSpaceOnUse">
<stop stop-color="#666666"/>
<stop offset="1" stop-color="white" stop-opacity="0"/>
</linearGradient>
</defs>
</svg>
