<svg width="64" height="64" viewBox="0 0 64 64" fill="none" xmlns="http://www.w3.org/2000/svg">
<rect x="8" y="12" width="48" height="40" rx="4" fill="#E9E9E9"/>
<rect x="8" y="12" width="48" height="40" rx="4" fill="url(#paint0_linear)"/>
<rect x="8" y="12" width="48" height="40" rx="4" fill="url(#paint1_linear)"/>
<rect x="22" y="22" width="20" height="20" rx="4" fill="#BDBDBD"/>
<path d="M28 2C28 0.89543 28.8954 0 30 0H34C35.1046 0 36 0.895431 36 2V30H28V2Z" fill="#878686"/>
<path d="M28 2C28 0.89543 28.8954 0 30 0H34C35.1046 0 36 0.895431 36 2V30H28V2Z" fill="url(#paint2_linear)"/>
<path d="M8 0V16V64H2V60H0V55H2V50H0V45H2V40H0V35H2V30H0V25H2V20H0V15H2V10H0V5H2V0H8Z" fill="#E9E9E9"/>
<path d="M8 0V16V64H2V60H0V55H2V50H0V45H2V40H0V35H2V30H0V25H2V20H0V15H2V10H0V5H2V0H8Z" fill="url(#paint3_linear)"/>
<path d="M56 0V17V64H62V60H64V55H62V50H64V45H62V40H64V35H62V30H64V25H62V20H64V15H62V10H64V5H62V0H56Z" fill="#E9E9E9"/>
<path d="M56 0V17V64H62V60H64V55H62V50H64V45H62V40H64V35H62V30H64V25H62V20H64V15H62V10H64V5H62V0H56Z" fill="url(#paint4_linear)"/>
<defs>
<linearGradient id="paint0_linear" x1="32" y1="12" x2="32" y2="32" gradientUnits="userSpaceOnUse">
<stop stop-color="#878686"/>
<stop offset="1" stop-color="white" stop-opacity="0"/>
</linearGradient>
<linearGradient id="paint1_linear" x1="32" y1="52" x2="32" y2="32" gradientUnits="userSpaceOnUse">
<stop stop-color="#878686"/>
<stop offset="1" stop-color="white" stop-opacity="0"/>
</linearGradient>
<linearGradient id="paint2_linear" x1="28" y1="30" x2="36" y2="30" gradientUnits="userSpaceOnUse">
<stop stop-color="white"/>
<stop offset="1" stop-color="white" stop-opacity="0"/>
</linearGradient>
<linearGradient id="paint3_linear" x1="0" y1="0" x2="8" y2="0" gradientUnits="userSpaceOnUse">
<stop stop-color="#878686"/>
<stop offset="1" stop-color="white" stop-opacity="0"/>
</linearGradient>
<linearGradient id="paint4_linear" x1="64" y1="64" x2="56" y2="64" gradientUnits="userSpaceOnUse">
<stop stop-color="#878686"/>
<stop offset="1" stop-color="white" stop-opacity="0"/>
</linearGradient>
</defs>
</svg>
