<svg width="64" height="66" viewBox="0 0 64 66" fill="none" xmlns="http://www.w3.org/2000/svg">
<path d="M33 1H31V2H29V4H27V6H26V7H25V8H24V9H23V10H22V11H21V12H20V13H19V14H18V62L21 65H43L46 62V14H45V13H44V12H43V11H42V10H41V9H40V8H39V7H38V6H37V4H35V2H33V1Z" fill="white"/>
<path d="M33 1H31V2H29V4H27V6H26V7H25V8H24V9H23V10H22V11H21V12H20V13H19V14H18V62L21 65H43L46 62V14H45V13H44V12H43V11H42V10H41V9H40V8H39V7H38V6H37V4H35V2H33V1Z" fill="url(#paint0_linear)"/>
<path d="M33 1H31V2H29V4H27V6H26V7H25V8H24V9H23V10H22V11H21V12H20V13H19V14H18V62L21 65H43L46 62V14H45V13H44V12H43V11H42V10H41V9H40V8H39V7H38V6H37V4H35V2H33V1Z" fill="url(#paint1_linear)"/>
<path d="M33 1H31V2H29V4H27V6H26V7H25V8H24V9H23V10H22V11H21V12H20V13H19V14H18V62L21 65H43L46 62V14H45V13H44V12H43V11H42V10H41V9H40V8H39V7H38V6H37V4H35V2H33V1Z" stroke="#666666" stroke-width="0.5" stroke-linejoin="bevel"/>
<defs>
<linearGradient id="paint0_linear" x1="18" y1="33" x2="32" y2="33" gradientUnits="userSpaceOnUse">
<stop stop-color="#733131"/>
<stop offset="1" stop-color="white" stop-opacity="0"/>
</linearGradient>
<linearGradient id="paint1_linear" x1="46" y1="33" x2="32" y2="33" gradientUnits="userSpaceOnUse">
<stop stop-color="#733131"/>
<stop offset="1" stop-color="white" stop-opacity="0"/>
</linearGradient>
</defs>
</svg>
