<svg width="64" height="64" viewBox="0 0 64 64" fill="none" xmlns="http://www.w3.org/2000/svg">
<rect x="9" y="52" width="40" height="46" rx="4" transform="rotate(-90 9 52)" fill="#E9E9E9"/>
<rect x="9" y="52" width="40" height="46" rx="4" transform="rotate(-90 9 52)" fill="url(#paint0_linear)"/>
<rect x="9" y="52" width="40" height="46" rx="4" transform="rotate(-90 9 52)" fill="url(#paint1_linear)"/>
<rect x="20" y="46" width="28" height="24" rx="4" transform="rotate(-90 20 46)" fill="#BDBDBD"/>
<path d="M0 52H12H64V61V64H60V61H55V64H50V61H45V64H40V61H35V64H30V61H25V64H20V61H15V64H10V61H5V64H0L0 52Z" fill="#E9E9E9"/>
<path d="M0 52H12H64V61V64H60V61H55V64H50V61H45V64H40V61H35V64H30V61H25V64H20V61H15V64H10V61H5V64H0L0 52Z" fill="url(#paint2_linear)"/>
<path d="M0 12L15 12L64 12V0H60V3H55V0H50V3H45V0L40 0V3H35V0H30V3H25V0H20V3H15V0L10 0V3H5V0H0L0 12Z" fill="#E9E9E9"/>
<path d="M0 12L15 12L64 12V0H60V3H55V0H50V3H45V0L40 0V3H35V0H30V3H25V0H20V3H15V0L10 0V3H5V0H0L0 12Z" fill="url(#paint3_linear)"/>
<path d="M30 28V36H3V38H0L0 26H3L3 28H30Z" fill="#878686"/>
<path d="M30 28V36H3V38H0L0 26H3L3 28H30Z" fill="url(#paint4_linear)"/>
<defs>
<linearGradient id="paint0_linear" x1="29" y1="52" x2="29" y2="75" gradientUnits="userSpaceOnUse">
<stop stop-color="#878686"/>
<stop offset="1" stop-color="white" stop-opacity="0"/>
</linearGradient>
<linearGradient id="paint1_linear" x1="29" y1="98" x2="29" y2="75" gradientUnits="userSpaceOnUse">
<stop stop-color="#878686"/>
<stop offset="1" stop-color="white" stop-opacity="0"/>
</linearGradient>
<linearGradient id="paint2_linear" x1="64" y1="64" x2="64" y2="52" gradientUnits="userSpaceOnUse">
<stop stop-color="#878686"/>
<stop offset="1" stop-color="white" stop-opacity="0"/>
</linearGradient>
<linearGradient id="paint3_linear" x1="64" y1="0" x2="64" y2="12" gradientUnits="userSpaceOnUse">
<stop stop-color="#878686"/>
<stop offset="1" stop-color="white" stop-opacity="0"/>
</linearGradient>
<linearGradient id="paint4_linear" x1="0" y1="36" x2="0" y2="28.5" gradientUnits="userSpaceOnUse">
<stop stop-color="white"/>
<stop offset="1" stop-color="white" stop-opacity="0"/>
</linearGradient>
</defs>
</svg>
