<svg width="64" height="64" viewBox="0 0 64 64" fill="none" xmlns="http://www.w3.org/2000/svg">
<rect x="52" y="8" width="48" height="40" rx="4" transform="rotate(90 52 8)" fill="#E9E9E9"/>
<rect x="52" y="8" width="48" height="40" rx="4" transform="rotate(90 52 8)" fill="url(#paint0_linear)"/>
<rect x="52" y="8" width="48" height="40" rx="4" transform="rotate(90 52 8)" fill="url(#paint1_linear)"/>
<rect x="42" y="22" width="20" height="20" rx="4" transform="rotate(90 42 22)" fill="#BDBDBD"/>
<path d="M64 8L52 8L0 8V2V0L4 0V2L9 2V0L14 0V2L19 2V0L24 0V2L29 2V0L34 0V2L39 2V0L44 0V2L49 2V0L54 0V2L59 2V0L64 0V8Z" fill="#E9E9E9"/>
<path d="M64 8L52 8L0 8V2V0L4 0V2L9 2V0L14 0V2L19 2V0L24 0V2L29 2V0L34 0V2L39 2V0L44 0V2L49 2V0L54 0V2L59 2V0L64 0V8Z" fill="url(#paint2_linear)"/>
<path d="M64 56H49L0 56V64H4V62L9 62V64H14V62H19V64H24V62H29V64H34V62H39V64L44 64V62H49V64H54V62H59V64H64V56Z" fill="#E9E9E9"/>
<path d="M64 56H49L0 56V64H4V62L9 62V64H14V62H19V64H24V62H29V64H34V62H39V64L44 64V62H49V64H54V62H59V64H64V56Z" fill="url(#paint3_linear)"/>
<path d="M62 28C63.1046 28 64 28.8954 64 30V34C64 35.1046 63.1046 36 62 36L34 36V28L62 28Z" fill="#878686"/>
<path d="M62 28C63.1046 28 64 28.8954 64 30V34C64 35.1046 63.1046 36 62 36L34 36V28L62 28Z" fill="url(#paint4_linear)"/>
<defs>
<linearGradient id="paint0_linear" x1="76" y1="8" x2="76" y2="28" gradientUnits="userSpaceOnUse">
<stop stop-color="#878686"/>
<stop offset="1" stop-color="white" stop-opacity="0"/>
</linearGradient>
<linearGradient id="paint1_linear" x1="76" y1="48" x2="76" y2="28" gradientUnits="userSpaceOnUse">
<stop stop-color="#878686"/>
<stop offset="1" stop-color="white" stop-opacity="0"/>
</linearGradient>
<linearGradient id="paint2_linear" x1="0" y1="0" x2="0" y2="8" gradientUnits="userSpaceOnUse">
<stop stop-color="#878686"/>
<stop offset="1" stop-color="white" stop-opacity="0"/>
</linearGradient>
<linearGradient id="paint3_linear" x1="0" y1="64" x2="0" y2="56" gradientUnits="userSpaceOnUse">
<stop stop-color="#878686"/>
<stop offset="1" stop-color="white" stop-opacity="0"/>
</linearGradient>
<linearGradient id="paint4_linear" x1="34" y1="28" x2="34" y2="36" gradientUnits="userSpaceOnUse">
<stop stop-color="white"/>
<stop offset="1" stop-color="white" stop-opacity="0"/>
</linearGradient>
</defs>
</svg>
