<svg width="64" height="64" viewBox="0 0 64 64" fill="none" xmlns="http://www.w3.org/2000/svg">
<rect x="56" y="52" width="48" height="40" rx="4" transform="rotate(-180 56 52)" fill="#E9E9E9"/>
<rect x="56" y="52" width="48" height="40" rx="4" transform="rotate(-180 56 52)" fill="url(#paint0_linear)"/>
<rect x="56" y="52" width="48" height="40" rx="4" transform="rotate(-180 56 52)" fill="url(#paint1_linear)"/>
<rect x="42" y="42" width="20" height="20" rx="4" transform="rotate(-180 42 42)" fill="#BDBDBD"/>
<path d="M56 64V52L56 0H62H64V4H62V9H64V14H62V19H64V24H62V29H64V34H62L62 39H64V44H62V49H64V54H62V59H64V64H56Z" fill="#E9E9E9"/>
<path d="M56 64V52L56 0H62H64V4H62V9H64V14H62V19H64V24H62V29H64V34H62L62 39H64V44H62V49H64V54H62V59H64V64H56Z" fill="url(#paint2_linear)"/>
<path d="M8 64L8 49L8 0H0L0 4H2V9H0L0 14H2L2 19H0V24H2L2 29H0L0 34H2L2 39H0V44H2L2 49H0L0 54H2V59H0L0 64H8Z" fill="#E9E9E9"/>
<path d="M8 64L8 49L8 0H0L0 4H2V9H0L0 14H2L2 19H0V24H2L2 29H0L0 34H2L2 39H0V44H2L2 49H0L0 54H2V59H0L0 64H8Z" fill="url(#paint3_linear)"/>
<path d="M36 62C36 63.1046 35.1046 64 34 64H30C28.8954 64 28 63.1046 28 62L28 34H36L36 62Z" fill="#878686"/>
<path d="M36 62C36 63.1046 35.1046 64 34 64H30C28.8954 64 28 63.1046 28 62L28 34H36L36 62Z" fill="url(#paint4_linear)"/>
<defs>
<linearGradient id="paint0_linear" x1="80" y1="52" x2="80" y2="72" gradientUnits="userSpaceOnUse">
<stop stop-color="#878686"/>
<stop offset="1" stop-color="white" stop-opacity="0"/>
</linearGradient>
<linearGradient id="paint1_linear" x1="80" y1="92" x2="80" y2="72" gradientUnits="userSpaceOnUse">
<stop stop-color="#878686"/>
<stop offset="1" stop-color="white" stop-opacity="0"/>
</linearGradient>
<linearGradient id="paint2_linear" x1="64" y1="0" x2="56" y2="0" gradientUnits="userSpaceOnUse">
<stop stop-color="#878686"/>
<stop offset="1" stop-color="white" stop-opacity="0"/>
</linearGradient>
<linearGradient id="paint3_linear" x1="0" y1="0" x2="8" y2="0" gradientUnits="userSpaceOnUse">
<stop stop-color="#878686"/>
<stop offset="1" stop-color="white" stop-opacity="0"/>
</linearGradient>
<linearGradient id="paint4_linear" x1="36" y1="34" x2="28" y2="34" gradientUnits="userSpaceOnUse">
<stop stop-color="white"/>
<stop offset="1" stop-color="white" stop-opacity="0"/>
</linearGradient>
</defs>
</svg>
