<svg width="64" height="66" viewBox="0 0 64 66" fill="none" xmlns="http://www.w3.org/2000/svg">
<path d="M31 65H33V64H35V62H37L37 60H38V59H39V58L40 58V57H41V56H42V55H43V54H44V53H45V52H46L46 4L43 1L21 1L18 4L18 52H19V53H20V54H21V55H22L22 56H23V57H24V58H25V59H26V60L27 60L27 62H29V64H31V65Z" fill="white"/>
<path d="M31 65H33V64H35V62H37L37 60H38V59H39V58L40 58V57H41V56H42V55H43V54H44V53H45V52H46L46 4L43 1L21 1L18 4L18 52H19V53H20V54H21V55H22L22 56H23V57H24V58H25V59H26V60L27 60L27 62H29V64H31V65Z" fill="url(#paint0_linear)"/>
<path d="M31 65H33V64H35V62H37L37 60H38V59H39V58L40 58V57H41V56H42V55H43V54H44V53H45V52H46L46 4L43 1L21 1L18 4L18 52H19V53H20V54H21V55H22L22 56H23V57H24V58H25V59H26V60L27 60L27 62H29V64H31V65Z" fill="url(#paint1_linear)"/>
<path d="M31 65H33V64H35V62H37L37 60H38V59H39V58L40 58V57H41V56H42V55H43V54H44V53H45V52H46L46 4L43 1L21 1L18 4L18 52H19V53H20V54H21V55H22L22 56H23V57H24V58H25V59H26V60L27 60L27 62H29V64H31V65Z" stroke="#666666" stroke-width="0.5" stroke-linejoin="bevel"/>
<defs>
<linearGradient id="paint0_linear" x1="46" y1="33" x2="32" y2="33" gradientUnits="userSpaceOnUse">
<stop stop-color="#666666"/>
<stop offset="1" stop-color="white" stop-opacity="0"/>
</linearGradient>
<linearGradient id="paint1_linear" x1="18" y1="33" x2="32" y2="33" gradientUnits="userSpaceOnUse">
<stop stop-color="#666666"/>
<stop offset="1" stop-color="white" stop-opacity="0"/>
</linearGradient>
</defs>
</svg>
